# xmcd
#
# Track frame offsets: 
#        150
#        14108
#        24177
#        38481
#        49839
#        62865
#        73308
#        84790
#        100037
#        113790
#        127426
#        139942
#        151617
#        162863
#        177056
#        190176
#        200245
#        211518
#        224772
#        236110
#        250810
#        265006
#        276803
#        288120
#        298791
#
# Disc length: 4100 seconds
#
# Revision: 2
# Processed by: cddbd v1.5.1PL2 Copyright (c) Steve Scherf et al.
# Submitted via: ExactAudioCopy v0.95b2
#
DISCID=74100219
DTITLE=Various Artist - Doo-Wop Delights Volume 3: Rocking and Crying B
DTITLE=lues
DYEAR=2005
DGENRE=Doo Wop
TTITLE0=The Orioles - Teardrops On My Pillow
TTITLE1=The Embers - Paradise Hill
TTITLE2=The Serenaders - I Want To Love You Baby
TTITLE3=The Vocaleers - I Walk Alone
TTITLE4=The Buccaneers - In The Mission of St. Augustine
TTITLE5=The Larks - Shadrack
TTITLE6=The Marylanders - Please Love Me
TTITLE7=The Velvets - I
TTITLE8=The Orioles - I Miss You So
TTITLE9=The Five Crowns - Alone Again
TTITLE10=The Crickets - I'll Cry No More
TTITLE11=The Marylanders - Good Old 99
TTITLE12=The Sultans - Don't Be Angry
TTITLE13=The Flamingos - Hurry Home Baby
TTITLE14=The Sha-Weez - No One To Love Me
TTITLE15=The Ebonaires - You're Nobody Til Somebody Loves You
TTITLE16=The Swallows - I Only Have Eyes For You
TTITLE17=The Red Caps - Are You Lonesome Tonight
TTITLE18=The Hollywood Flames - Cryin' For My Baby
TTITLE19=The Vocaleers - Will You Be True
TTITLE20=The Cardinals - You Are My Only Love
TTITLE21=The Sultans - Blues At Dawn
TTITLE22=The Platters - Give Thanks
TTITLE23=The Five Keys - Rocking and Crying Blues
TTITLE24=Billy Ward and His Dominoes - I'd Be Satisfied
EXTD=
EXTT0=
EXTT1=
EXTT2=
EXTT3=
EXTT4=
EXTT5=
EXTT6=
EXTT7=
EXTT8=
EXTT9=
EXTT10=
EXTT11=
EXTT12=
EXTT13=
EXTT14=
EXTT15=
EXTT16=
EXTT17=
EXTT18=
EXTT19=
EXTT20=
EXTT21=
EXTT22=
EXTT23=
EXTT24=
PLAYORDER=
